<?xml version="1.0" encoding="UTF-8" standalone="no"?>
<!-- Generator: Adobe Illustrator 24.2.0, SVG Export Plug-In . SVG Version: 6.00 Build 0)  -->

<svg
   version="1.1"
   id="Layer_1"
   x="0px"
   y="0px"
   viewBox="0 0 898.848 898.751"
   style="enable-background:new 0 0 898.848 898.751"
   xml:space="preserve"
   sodipodi:docname="Bắc Ninh.svg"
   height="898.751px"
   width="898.848px"
   inkscape:version="1.1.1 (3bf5ae0d25, 2021-09-20)"
   xmlns:inkscape="http://www.inkscape.org/namespaces/inkscape"
   xmlns:sodipodi="http://sodipodi.sourceforge.net/DTD/sodipodi-0.dtd"
   xmlns="http://www.w3.org/2000/svg"
   xmlns:svg="http://www.w3.org/2000/svg"><defs
   id="defs59" /><sodipodi:namedview
   id="namedview57"
   pagecolor="#ffffff"
   bordercolor="#666666"
   borderopacity="1.0"
   inkscape:pageshadow="2"
   inkscape:pageopacity="0.0"
   inkscape:pagecheckerboard="0"
   showgrid="false"
   inkscape:zoom="0.76816239"
   inkscape:cx="467.3491"
   inkscape:cy="468"
   inkscape:window-width="1664"
   inkscape:window-height="999"
   inkscape:window-x="162"
   inkscape:window-y="48"
   inkscape:window-maximized="0"
   inkscape:current-layer="Layer_1" />
<style
   type="text/css"
   id="style2">
	.st0{fill:#AD0018;}
	.st1{fill:#ECE76F;}
</style>

<g
   id="g54"
   transform="translate(-18.552616,-18.63015)"><g
     id="g16"><g
       id="g6"><path
         class="st0"
         d="m 440.4,19.5 c 84.5,-5.3 170.4,13.7 244.4,54.8 60.1,33.1 112.3,80.2 151.6,136.4 27.6,39.5 48.8,83.4 62.5,129.6 26.7,89.7 24.5,187.7 -6.6,276 -25.1,71.8 -68.8,137 -125.7,187.5 -60.7,54.3 -136.6,91.6 -216.8,106.2 -50.3,9.2 -102.1,9.8 -152.5,1.8 -48.9,-7.7 -96.5,-23.6 -140.1,-47 -53.9,-28.6 -101.7,-68.5 -140,-116 C 67.4,687 34.5,611.7 23.2,533 15.9,482.4 17.2,430.5 27.1,380.3 36.8,331.6 54.6,284.6 79.7,241.7 115.5,180.2 166.3,127.6 226.2,89.2 290.1,48.2 364.6,24 440.4,19.5 Z M 321.6,89.7 c -25,9.5 -48.8,22.2 -71.6,36.2 14.3,-7 28.9,-13.4 43.9,-18.9 43.8,-16.3 90.4,-25.2 137.1,-25.2 74.2,0.4 147.9,22.9 210.2,63.1 55.8,36 103.7,85.2 134.8,144.1 27.9,52.1 42.8,111 43.4,170 0.5,46.1 -7.6,92.3 -24,135.4 -13.9,36.7 -33.7,71.1 -58.4,101.6 -10.9,13.2 -22.3,26.1 -35.1,37.5 -2.2,-12.9 -3.8,-25.8 -5.8,-38.8 -8.5,-58.2 -16.9,-116.3 -25.4,-174.5 -17.6,7.8 -35.2,15.7 -52.6,24 8.4,77.9 17.6,155.8 26,233.7 -51,31.9 -110.1,50.8 -170.1,54.7 -60.2,4.3 -121.1,-7.2 -176.5,-30.8 -0.3,-8.6 0.9,-17.2 1,-25.8 3.4,-64.1 6.3,-128.3 10,-192.4 32,0.8 64.4,-0.5 95.6,-8.4 17.8,-4.6 35.3,-11.6 49.8,-23.1 -5.2,0.4 -10.2,1.6 -15.3,2.4 -27.6,4.5 -55.8,6 -83.7,4.2 -40.1,-1.6 -80.3,-10.1 -116.3,-28.3 -29.2,-14.4 -55.4,-34.6 -77.9,-58.1 -10.6,-11.5 -21.5,-23 -29.3,-36.7 -11.5,-20.2 -18.6,-42.6 -22.9,-65.3 -4.2,-22.8 -5.9,-46.2 -4,-69.3 1.4,-19.9 5.7,-39.7 13.6,-58.1 -10.6,9.1 -18.2,21.1 -25,33.1 -11.5,21.6 -19.8,44.8 -25.5,68.6 -6.8,27.7 -7.7,56.9 -2.3,84.9 5.9,30.7 20.3,59.7 41.5,82.7 23.9,26.5 56,44.8 89.9,55.2 -3.6,36 -7.8,72 -11.6,108 -2,16.5 -3.3,33 -5.6,49.4 -28.4,-26.1 -52.8,-56.7 -72.2,-90.1 -17.1,-29.3 -29.6,-61 -38.2,-93.8 16.1,92.3 66.5,177.8 138.2,237.8 42.1,35.4 91.4,62.1 144.1,77.9 46.8,14 96,19.4 144.7,16 81.6,-5.3 161.2,-36.4 225,-87.6 56.9,-45.3 101.3,-106.2 126.8,-174.3 33.2,-87.8 34.4,-187.3 3.4,-275.9 -18.8,-54.3 -49.4,-104.4 -89,-146 C 713.8,137.5 651.7,99.2 584,79.2 498.5,53.7 404.7,57.4 321.6,89.7 Z m 55.9,6.1 2.9,23.5 -8.2,0.9 -3.2,-23.6 -14.6,2.1 8.1,62.9 14.3,-1.8 -3.2,-27 8.2,-0.8 3.7,26.7 14.3,-1.8 L 392,93.7 Z M 329,105 c 2.6,11.6 6.8,22.8 9.1,34.4 -7.5,-10 -13.6,-20.9 -21,-31.1 -5,1.3 -10.1,2.7 -15,4.2 0.9,5.2 17,61.2 17,61.2 0,0 9.1,-2.3 13.6,-3.6 -2.9,-12.2 -7.1,-24.1 -9.7,-36.3 7.9,10.6 21.8,33 21.8,33 0,0 10,-2.8 15,-4.3 -5.5,-20.5 -11.4,-40.9 -17.4,-61.3 -4.5,1 -9,2.3 -13.4,3.8 z m -51.8,19 c 8.5,19.4 17.4,38.6 26.1,57.9 4.5,-1.7 8.9,-3.8 13.2,-5.9 -8.4,-19.4 -17.4,-38.6 -26,-57.8 -4.6,1.4 -9,3.6 -13.3,5.8 z m 180.1,0.4 c -3,3 -3.6,7.6 -3.6,11.6 -0.1,41.9 -0.1,83.9 -0.2,125.8 -5.1,0.9 -10.3,1.7 -15.1,3.6 -9.2,3.6 -17.1,10.1 -23.1,18 -4.5,6.1 -8.2,13.7 -6.9,21.5 0.7,5.1 5.4,8.4 10,9.8 10.1,3 20.8,1.3 30.8,-1.3 7.6,-1.9 14.6,-5.7 22,-8.2 8.7,-3 19.2,-1.6 26.2,4.6 7.5,6.3 11.8,15.3 14.8,24.4 1.4,-2 2.8,-4.2 3.2,-6.7 2.3,-13.5 -2,-27.2 -8.7,-38.8 -7.3,-12.7 -19.7,-22.8 -34.2,-25.9 -0.3,-42.6 -0.6,-85.1 -0.7,-127.7 0.1,-4.5 -1.1,-9.8 -5.3,-12.2 -3.1,-1.3 -7,-1 -9.2,1.5 z m -201.1,10.1 c 5.3,10.5 12.1,20.3 17,31 -9.7,-7.6 -18.2,-16.7 -27.5,-24.7 -4.8,2.3 -9.3,5 -13.8,7.7 3.2,6.5 7.1,12.6 10.6,19 7.1,12 13.7,24.4 21.1,36.2 4.1,-2.2 8,-4.5 12,-6.9 -6,-11.4 -12.9,-22.2 -18.8,-33.6 10,8.8 19.4,18.4 29.3,27.4 4.8,-2.3 9.3,-5 13.8,-7.8 -10.1,-18.5 -20.9,-36.6 -31.4,-54.9 -4.3,1.5 -8.3,4.2 -12.3,6.6 z M 185,188 c -3,5.9 -1.5,13.3 3,18.1 7.2,7.8 14.6,15.5 22,23.1 4,4.3 10.2,6.5 16,5.1 8.8,-2.4 16.6,-10.7 16.2,-20.2 -0.4,-7.3 -6.1,-12.6 -11.1,-17.3 -3.7,3 -7.3,6.3 -10.4,10 2.8,3.2 6.2,5.8 8.2,9.6 1.6,2.9 -2.4,6.6 -5.3,5 -2.7,-1.5 -4.7,-4 -6.8,-6.2 -5.7,-6.3 -11.8,-12.2 -17.6,-18.4 -1.4,-1.8 -3.8,-4.1 -2.3,-6.5 1,-2.2 4.3,-3.1 6.1,-1.4 2.5,2 4.6,4.4 6.9,6.5 3.7,-3.1 7.3,-6.3 10.3,-10.1 -4.1,-4.3 -8.3,-9.4 -14.6,-10.1 -8.7,-1.1 -16.8,5.3 -20.6,12.8 z m -48.3,14.2 5.8,9.1 4.3,-6.2 -2.7,-12.2 z m 13.4,1.1 c 0.5,2.8 2,6.1 -0.3,8.6 -1.8,3.1 -5.6,2.7 -8.6,2.6 -0.9,1.4 -1.7,2.9 -2.5,4.4 3.3,2 7.6,3.1 11.1,1 4,-2.6 7.4,-6.9 7.8,-11.8 0.3,-3.5 -1.8,-6.4 -4.4,-8.4 -1.1,1.1 -2.1,2.3 -3.1,3.6 z m 1.1,22.6 c 7.9,9.1 15.9,18.1 23.8,27.2 6.4,7 12.3,14.5 19,21.2 3.2,-3.6 6.1,-7.3 8.9,-11.3 -2.6,-2.7 -5.2,-5.4 -7.8,-8.1 1.9,-2.8 4,-5.4 6.2,-7.9 3.3,1.7 6.5,3.6 9.8,5.4 3.4,-3.7 6.4,-7.7 9.4,-11.7 -2.7,-1.8 -5.6,-3.3 -8.4,-4.8 -16.4,-8.3 -32.5,-17.2 -49,-25.3 -4.2,5.1 -8.2,10.1 -11.9,15.3 z m -21.7,32.7 c -3.1,5.7 -6.8,11.1 -9.4,17 15.3,8.9 30.6,17.6 45.9,26.5 3,1.8 6.1,3.6 9.4,4.9 3.5,-6.3 7.3,-12.5 10.7,-18.9 2.5,-4.5 3.4,-10.2 0.6,-14.8 -3.6,-5.6 -9.7,-9.6 -16.2,-11 -3.7,-0.9 -7.3,0.7 -10.2,3 -0.4,-3.5 -0.8,-7.4 -3.8,-9.8 -4.3,-3.6 -9.7,-7 -15.5,-7 -5.5,0.7 -8.9,5.7 -11.5,10.1 z m 283.9,65.9 c -15.2,6.3 -29.6,15 -41.3,26.7 -9.3,9.6 -16.9,22.2 -16.9,35.9 -0.2,9.8 6.7,18.4 15.3,22.5 8.5,4.3 18.2,4.4 27.5,4.2 17,-0.3 33.8,-5 48.9,-12.8 16.3,-7.9 32.8,-16.6 51,-19 10.2,-1.5 20.7,3.1 26.8,11.3 7.8,10.6 10.8,23.9 12,36.8 1.7,13.9 0,28 2.4,41.8 0.7,0 2,0 2.7,0 5.5,-6.7 5.8,-15.8 7.1,-23.9 1.3,-13.6 2.7,-27.5 0.2,-41.1 -1.8,-11.3 -5.1,-22.4 -10.3,-32.5 -6.2,-12.2 -15.2,-22.7 -25.4,-31.6 -27,-23.1 -66.6,-30.9 -100,-18.3 z M 185,346.2 c -5,14.7 -5.8,30.5 -4.3,45.9 2.1,17.4 8.9,34.1 18.7,48.6 11.7,17.3 27.3,31.7 44.3,43.6 28,19.4 60,32.5 92.8,41.2 83.2,21.5 173.1,16.2 253.4,-14.4 52.3,-19.9 100.4,-51.4 139.1,-91.9 18.3,-19.1 34.6,-40 48.6,-62.4 2.6,-4.6 6,-9.4 5.9,-14.9 -5.4,1.5 -9.4,5.8 -13.5,9.3 -10.1,9 -19,19.5 -30.9,26.1 -9.5,5.4 -20.4,7.7 -31.2,8.4 -5,0.5 -10.5,0.7 -14.9,3.5 -3.8,2.6 -2.9,7.8 -1.7,11.5 1.5,4 3,8.8 7.1,10.8 4.7,1.3 9.3,-1.4 13.4,-3.5 6.5,-3.8 13.4,-6.9 19.9,-10.9 -3.9,5 -7.9,9.9 -12.4,14.4 -7.1,7.2 -15.9,12.2 -24.2,17.8 -17.1,11.2 -34.5,22.2 -52.8,31.4 -30.7,15.7 -64,25.5 -97.5,33.4 -60.3,13.7 -124.7,10.6 -182.8,-11 -33.2,-12.3 -64.2,-30.8 -90.6,-54.4 -22.4,-19.9 -41.4,-43.5 -56.7,-69.3 -6.5,-10.8 -11.2,-22.6 -16.2,-34.1 -6.6,5.1 -10.7,12.9 -13.5,20.9 z m 222.6,285.3 c -0.1,36.2 -0.2,72.5 0,108.7 36.2,2.7 72.5,5.6 108.7,8.3 0.2,-21.5 0,-43 0.1,-64.4 -0.2,-14.8 0.3,-29.6 -0.3,-44.4 -36.1,-2.7 -72.3,-5.8 -108.5,-8.2 z"
         id="path4" /></g><path
       class="st0"
       d="m 166.9,225.8 c 0,0 16.6,9.9 24.7,15.2 -1.4,1.9 -2.9,3.7 -4.4,5.5 -7.1,-6.6 -20.3,-20.7 -20.3,-20.7 z"
       id="path8" /><path
       class="st0"
       d="m 136.5,268 c 1.3,-1.8 2,-4.8 4.6,-4.8 3.5,0 6.8,2.1 9.2,4.6 2.1,2.2 0,5 -0.8,7.3 -4.6,-1.6 -8.8,-4.4 -13,-7.1 z"
       id="path10" /><path
       class="st0"
       d="m 158.1,280.6 c 1.2,-2.4 2.6,-5.9 5.9,-5.4 3.9,0.6 7.5,2.9 10.4,5.6 2.8,2.3 0,5.9 -1.3,8.3 -5.1,-2.6 -10,-5.6 -15,-8.5 z"
       id="path12" /><path
       class="st0"
       d="m 230,575.3 c 3.6,0.4 7.1,1.1 10.6,1.7 -0.6,22 -2.3,44 -3.2,66 -2.3,40.7 -4.2,81.5 -6.5,122.2 -4.8,-2.6 -9.1,-5.8 -13.4,-9.2 3.9,-60.2 8.3,-120.4 12.5,-180.7 z"
       id="path14" /></g><g
     id="g52"><g
       id="g20"><path
         class="st1"
         d="m 321.6,89.7 c 83.1,-32.3 176.9,-36 262.2,-10.4 67.7,20 129.8,58.3 178.3,109.6 39.6,41.6 70.2,91.8 89,146 31,88.6 29.8,188.1 -3.4,275.9 -25.5,68.1 -69.9,129 -126.8,174.3 -63.8,51.2 -143.4,82.3 -225,87.6 -48.7,3.4 -98,-2 -144.7,-16 -52.7,-15.8 -102,-42.5 -144.1,-77.9 -71.6,-60 -121.9,-145.5 -138,-237.8 8.6,32.7 21.1,64.5 38.2,93.8 19.4,33.4 43.8,64 72.2,90.1 2.4,-16.4 3.6,-32.9 5.6,-49.4 3.8,-36 8,-72 11.6,-108 -33.9,-10.4 -66,-28.7 -89.9,-55.2 -21.2,-23 -35.6,-52 -41.5,-82.7 -5.4,-28 -4.6,-57.2 2.3,-84.9 5.8,-23.8 14,-47 25.5,-68.6 6.7,-12.1 14.3,-24.1 25,-33.1 -7.8,18.4 -12.2,38.1 -13.6,58.1 -1.9,23.1 -0.2,46.5 4,69.3 4.4,22.7 11.4,45.1 22.9,65.3 7.8,13.7 18.7,25.2 29.3,36.7 22.5,23.5 48.7,43.6 77.9,58.1 36,18.1 76.2,26.7 116.3,28.3 28,1.8 56.1,0.2 83.7,-4.2 5.1,-0.8 10.1,-1.9 15.3,-2.4 -14.5,11.5 -32,18.5 -49.8,23.1 -31.2,8 -63.6,9.2 -95.6,8.4 -3.6,64.1 -6.5,128.3 -10,192.4 -0.1,8.6 -1.3,17.1 -1,25.8 55.4,23.6 116.3,35 176.5,30.8 60,-3.9 119.1,-22.8 170.1,-54.7 -8.4,-77.9 -17.5,-155.8 -26,-233.7 17.4,-8.3 35,-16.1 52.6,-24 8.5,58.2 16.9,116.3 25.4,174.5 2,12.9 3.6,25.9 5.8,38.8 12.9,-11.3 24.2,-24.3 35.1,-37.5 24.7,-30.5 44.5,-64.9 58.4,-101.6 16.4,-43.1 24.5,-89.3 24,-135.4 C 818.8,400 803.9,341.1 776,289.1 744.9,230.2 697,180.9 641.1,145 578.8,104.8 505.1,82.3 430.9,81.9 c -46.8,0 -93.4,8.8 -137.1,25.2 -14.9,5.6 -29.6,11.9 -43.9,18.9 22.9,-14.1 46.7,-26.8 71.7,-36.3 z M 230,575.3 c -4.2,60.3 -8.5,120.5 -12.5,180.8 4.3,3.3 8.6,6.6 13.4,9.2 2.4,-40.7 4.3,-81.5 6.5,-122.2 0.9,-22 2.6,-44 3.2,-66 -3.5,-0.7 -7.1,-1.4 -10.6,-1.8 z"
         id="path18" /></g><polygon
       class="st1"
       points="369,96.6 372.2,120.1 380.4,119.3 377.5,95.8 392,93.7 399.8,156.9 385.6,158.7 381.9,132 373.7,132.8 376.9,159.8 362.6,161.6 354.4,98.7 "
       id="polygon22" /><path
       class="st1"
       d="m 329,105 c 4.4,-1.4 8.8,-2.7 13.3,-3.8 6,20.4 11.9,40.8 17.4,61.3 -5,1.5 -15,4.3 -15,4.3 0,0 -13.9,-22.4 -21.8,-33 2.6,12.3 6.9,24.1 9.7,36.3 -4.5,1.3 -13.6,3.6 -13.6,3.6 0,0 -16.1,-56 -17,-61.2 5,-1.5 10,-2.9 15,-4.2 7.3,10.1 13.4,21.1 21,31.1 -2.2,-11.7 -6.4,-22.9 -9,-34.4 z"
       id="path24" /><path
       class="st1"
       d="m 277.2,124 c 4.3,-2.2 8.7,-4.3 13.3,-5.8 8.6,19.3 17.6,38.5 26,57.8 -4.3,2.1 -8.7,4.2 -13.2,5.9 -8.8,-19.3 -17.6,-38.5 -26.1,-57.9 z"
       id="path26" /><path
       class="st1"
       d="m 457.3,124.4 c 2.2,-2.5 6,-2.8 9,-1.6 4.3,2.4 5.5,7.7 5.3,12.2 0.1,42.6 0.4,85.2 0.7,127.7 14.5,3 26.9,13.1 34.2,25.9 6.7,11.6 11,25.4 8.7,38.8 -0.4,2.5 -1.8,4.7 -3.2,6.7 -2.9,-9.1 -7.3,-18.1 -14.8,-24.4 -7,-6.3 -17.5,-7.6 -26.2,-4.6 -7.4,2.5 -14.4,6.3 -22,8.2 -10,2.6 -20.7,4.3 -30.8,1.3 -4.6,-1.4 -9.3,-4.7 -10,-9.8 -1.2,-7.8 2.4,-15.4 6.9,-21.5 6,-7.8 13.9,-14.4 23.1,-18 4.8,-1.9 10,-2.6 15.1,-3.6 0.1,-41.9 0.2,-83.9 0.2,-125.8 0.2,-3.9 0.8,-8.5 3.8,-11.5 z"
       id="path28" /><path
       class="st1"
       d="m 256.2,134.5 c 4,-2.4 7.9,-5 12.4,-6.6 10.5,18.3 21.3,36.4 31.4,54.9 -4.5,2.8 -9,5.5 -13.8,7.8 -9.9,-9 -19.3,-18.5 -29.3,-27.4 5.9,11.4 12.8,22.3 18.8,33.6 -3.9,2.4 -7.9,4.7 -12,6.9 -7.4,-11.8 -14,-24.2 -21.1,-36.2 -3.5,-6.3 -7.5,-12.4 -10.6,-19 4.5,-2.8 9,-5.5 13.8,-7.7 9.3,8.1 17.8,17.1 27.5,24.7 -5,-10.8 -11.8,-20.5 -17.1,-31 z"
       id="path30" /><path
       class="st1"
       d="m 185,188 c 3.8,-7.5 11.9,-13.9 20.7,-12.7 6.3,0.7 10.6,5.8 14.6,10.1 -2.9,3.9 -6.6,7 -10.3,10.1 -2.3,-2.2 -4.4,-4.5 -6.9,-6.5 -1.9,-1.6 -5.1,-0.8 -6.1,1.4 -1.5,2.4 0.8,4.7 2.3,6.5 5.8,6.2 11.9,12.1 17.6,18.4 2.1,2.2 4.1,4.7 6.8,6.2 2.9,1.5 6.8,-2.2 5.3,-5 -2,-3.8 -5.4,-6.4 -8.2,-9.6 3.1,-3.7 6.6,-7 10.4,-10 5,4.7 10.7,9.9 11.1,17.3 0.4,9.4 -7.4,17.8 -16.2,20.2 -5.8,1.4 -12,-0.8 -16,-5.1 -7.4,-7.6 -14.8,-15.2 -22,-23.1 -4.6,-4.8 -6.2,-12.3 -3.1,-18.2 z"
       id="path32" /><polygon
       class="st1"
       points="144.1,192.8 146.9,205 142.5,211.3 136.7,202.2 "
       id="polygon34" /><path
       class="st1"
       d="m 150.1,203.3 c 1,-1.2 2,-2.4 3,-3.6 2.6,2 4.7,5 4.4,8.4 -0.4,4.9 -3.7,9.2 -7.8,11.8 -3.5,2.2 -7.8,1 -11.1,-1 0.8,-1.5 1.6,-3 2.5,-4.4 3.1,0.2 6.8,0.5 8.6,-2.6 2.4,-2.5 0.9,-5.8 0.4,-8.6 z"
       id="path36" /><g
       id="g40"><path
         class="st1"
         d="m 151.2,225.9 c 3.8,-5.2 7.7,-10.3 11.9,-15.2 16.5,8.1 32.6,16.9 49,25.3 2.9,1.4 5.8,3 8.4,4.8 -3,4 -6,8 -9.4,11.7 -3.2,-1.9 -6.4,-3.8 -9.8,-5.4 -2.2,2.5 -4.3,5.2 -6.2,7.9 2.6,2.7 5.2,5.4 7.8,8.1 -2.7,3.9 -5.7,7.7 -8.9,11.3 -6.7,-6.8 -12.6,-14.2 -19,-21.2 -7.9,-9.2 -16,-18.1 -23.8,-27.3 z m 15.7,-0.1 c 0,0 13.3,14 20.2,20.7 1.5,-1.8 3,-3.6 4.4,-5.5 -8,-5.3 -24.6,-15.2 -24.6,-15.2 z"
         id="path38" /></g><g
       id="g44"><path
         class="st1"
         d="m 129.5,258.6 c 2.6,-4.4 6,-9.4 11.5,-10 5.9,0 11.2,3.3 15.5,7 2.9,2.4 3.4,6.3 3.8,9.8 2.9,-2.3 6.4,-3.9 10.2,-3 6.5,1.5 12.6,5.4 16.2,11 2.9,4.5 1.9,10.3 -0.6,14.8 -3.5,6.4 -7.2,12.6 -10.7,18.9 -3.3,-1.3 -6.3,-3.1 -9.4,-4.9 -15.3,-8.9 -30.7,-17.6 -45.9,-26.5 2.6,-6 6.3,-11.4 9.4,-17.1 z m 7,9.4 c 4.1,2.7 8.3,5.4 13,7.1 0.8,-2.3 2.9,-5.1 0.8,-7.3 -2.3,-2.5 -5.6,-4.6 -9.2,-4.6 -2.6,0 -3.3,3.1 -4.6,4.8 z m 21.6,12.6 c 5,2.9 9.9,5.9 15.1,8.5 1.3,-2.4 4.1,-6 1.3,-8.3 -2.9,-2.6 -6.5,-4.9 -10.4,-5.6 -3.5,-0.5 -4.8,3.1 -6,5.4 z"
         id="path42" /></g><path
       class="st1"
       d="m 413.4,324.5 c 33.3,-12.6 73,-4.9 99.9,18.2 10.2,8.9 19.3,19.5 25.4,31.6 5.3,10.1 8.5,21.2 10.3,32.5 2.5,13.6 1.1,27.5 -0.2,41.1 -1.3,8.2 -1.7,17.3 -7.1,23.9 -0.7,0 -2,0 -2.7,0 -2.4,-13.8 -0.7,-27.9 -2.4,-41.8 -1.3,-12.9 -4.3,-26.2 -12,-36.8 -6.1,-8.3 -16.6,-12.8 -26.8,-11.3 -18.2,2.4 -34.7,11 -51,19 -15.1,7.8 -31.9,12.5 -48.9,12.8 -9.3,0.2 -19,0.1 -27.5,-4.2 -8.6,-4 -15.5,-12.7 -15.3,-22.5 0,-13.7 7.6,-26.3 16.9,-35.9 11.8,-11.6 26.2,-20.3 41.4,-26.6 z"
       id="path46" /><path
       class="st1"
       d="m 185,346.2 c 2.7,-8 6.9,-15.8 13.6,-21 5,11.6 9.7,23.3 16.2,34.1 15.3,25.8 34.3,49.4 56.7,69.3 26.4,23.6 57.4,42.1 90.6,54.4 58.1,21.6 122.5,24.7 182.8,11 33.5,-7.9 66.8,-17.7 97.5,-33.4 18.3,-9.2 35.7,-20.1 52.8,-31.4 8.3,-5.5 17.1,-10.6 24.2,-17.8 4.5,-4.5 8.5,-9.4 12.4,-14.4 -6.4,4 -13.4,7.1 -19.9,10.9 -4.1,2 -8.6,4.8 -13.4,3.5 -4.1,-2 -5.7,-6.8 -7.1,-10.8 -1.3,-3.7 -2.1,-8.9 1.7,-11.5 4.4,-2.8 9.8,-3 14.9,-3.5 10.8,-0.7 21.7,-3 31.2,-8.4 11.9,-6.6 20.8,-17.2 30.9,-26.1 4.2,-3.6 8.1,-7.8 13.5,-9.3 0.1,5.6 -3.3,10.3 -5.9,14.9 -14,22.4 -30.3,43.4 -48.6,62.4 -38.7,40.6 -86.7,72 -139.1,91.9 -80.3,30.6 -170.2,35.9 -253.4,14.4 -32.8,-8.7 -64.8,-21.8 -92.8,-41.2 -17.1,-11.9 -32.7,-26.3 -44.3,-43.6 -9.8,-14.5 -16.6,-31.2 -18.7,-48.6 -1.5,-15.3 -0.7,-31.1 4.2,-45.8 z"
       id="path48" /><path
       class="st1"
       d="m 407.6,631.5 c 36.2,2.4 72.4,5.5 108.6,8.2 0.6,14.8 0.1,29.6 0.3,44.4 -0.1,21.5 0.1,43 -0.1,64.4 -36.2,-2.7 -72.5,-5.6 -108.7,-8.3 -0.2,-36.2 -0.1,-72.5 -0.1,-108.7 z"
       id="path50" /></g></g></svg>
